<?xml version="1.0" standalone="no"?>
<!DOCTYPE svg PUBLIC "-//W3C//DTD SVG 20010904//EN"
 "http://www.w3.org/TR/2001/REC-SVG-20010904/DTD/svg10.dtd">
<svg version="1.0" xmlns="http://www.w3.org/2000/svg"
 width="1024.000000pt" height="1024.000000pt" viewBox="0 0 1024.000000 1024.000000"
 preserveAspectRatio="xMidYMid meet">

<g transform="translate(0.000000,1024.000000) scale(0.100000,-0.100000)"
fill="#000000" stroke="none">
<path d="M7670 9030 c-30 -5 -143 -20 -250 -34 -216 -28 -453 -62 -755 -107
-110 -16 -285 -40 -390 -54 -265 -34 -986 -132 -1285 -175 -168 -24 -396 -55
-515 -70 -49 -6 -184 -24 -300 -40 -115 -16 -363 -50 -550 -75 -187 -25 -468
-63 -625 -85 -459 -64 -590 -80 -645 -80 -141 0 -389 -67 -486 -132 -183 -123
-318 -359 -339 -598 -6 -61 -10 -1101 -10 -2520 0 -2663 -4 -2478 64 -2623 84
-176 237 -281 491 -337 55 -12 129 -29 165 -37 91 -21 212 -13 475 30 121 20
326 53 455 73 129 19 321 48 425 65 105 16 267 40 360 54 94 14 267 41 385 60
233 37 438 69 735 115 105 16 210 33 235 39 25 5 126 22 225 36 161 23 349 53
733 116 68 11 322 49 565 84 243 35 516 75 607 89 91 13 217 31 281 39 382 50
647 255 771 598 l23 64 -3 2477 -2 2476 -21 69 c-59 193 -166 324 -329 406
-52 26 -122 54 -155 63 -70 19 -256 27 -335 14z m311 -146 c85 -25 148 -62
211 -122 71 -67 114 -134 138 -210 17 -55 38 -192 27 -182 -3 3 -22 45 -42 94
-47 115 -69 149 -142 217 -79 76 -131 101 -218 107 -81 5 -416 -30 -552 -58
-51 -11 -152 -27 -225 -35 -73 -9 -185 -25 -248 -35 -63 -11 -191 -29 -285
-40 -93 -12 -235 -32 -315 -45 -80 -13 -170 -26 -200 -30 -30 -3 -147 -19
-260 -35 -113 -16 -254 -34 -315 -40 -60 -6 -186 -22 -280 -35 -93 -13 -210
-29 -260 -35 -49 -5 -180 -24 -290 -40 -110 -16 -315 -43 -455 -60 -140 -17
-311 -39 -380 -50 -69 -11 -170 -24 -225 -30 -55 -6 -192 -24 -305 -40 -113
-16 -304 -41 -425 -55 -329 -38 -523 -73 -589 -107 -161 -82 -308 -276 -351
-463 l-7 -30 -10 25 c-15 37 -2 142 25 209 32 79 111 196 172 254 57 55 174
116 283 146 39 10 218 40 399 66 180 25 407 57 503 71 96 13 294 40 440 58
146 19 346 46 445 60 99 13 223 30 275 36 52 7 163 22 245 35 83 13 213 31
290 40 77 9 192 25 255 35 63 11 225 33 360 50 135 17 272 35 305 40 33 5 185
25 337 45 153 19 312 42 355 50 43 8 134 21 203 30 69 9 195 27 280 40 85 14
236 34 335 45 99 11 203 24 230 29 85 15 207 12 266 -5z m-588 -241 c-7 -2
-19 -2 -25 0 -7 3 -2 5 12 5 14 0 19 -2 13 -5z m447 -127 c0 -3 -4 -8 -10 -11
-5 -3 -10 -1 -10 4 0 6 5 11 10 11 6 0 10 -2 10 -4z m-651 -322 c2 -2 -10 -4
-27 -4 -17 0 -34 4 -37 10 -5 9 53 3 64 -6z m-5269 -128 c0 -2 -8 -10 -17 -17
-16 -13 -17 -12 -4 4 13 16 21 21 21 13z m1777 -28 c39 -42 47 -77 33 -143
-20 -95 -53 -114 -232 -137 l-98 -12 -30 29 c-55 53 -63 131 -20 214 29 59 44
65 149 72 176 11 164 12 198 -23z m-877 -2 c0 -2 -8 -10 -17 -17 -16 -13 -17
-12 -4 4 13 16 21 21 21 13z m-49 -59 c-10 -9 -11 -8 -5 6 3 10 9 15 12 12 3
-3 0 -11 -7 -18z m-18 -32 c-3 -9 -8 -14 -10 -11 -3 3 -2 9 2 15 9 16 15 13 8
-4z m278 -14 c35 -35 38 -82 10 -125 -45 -67 -123 -86 -166 -40 -96 103 57
264 156 165z m-803 -35 c-13 -19 -24 -33 -26 -31 -5 4 37 65 44 65 2 0 -6 -15
-18 -34z m231 -30 c47 -25 65 -94 37 -144 -18 -33 -66 -62 -102 -62 -39 0 -94
57 -94 96 0 38 27 82 63 104 38 24 59 25 96 6z m5290 -130 c15 -16 20 -29 15
-38 -15 -25 -164 -203 -227 -272 l-63 -68 -32 16 c-18 9 -32 24 -32 33 0 9 25
43 56 75 65 68 65 67 -26 129 -28 19 -50 39 -50 45 0 5 13 23 29 38 29 28 29
28 49 8 10 -10 40 -34 66 -51 55 -38 56 -38 122 54 21 30 46 55 55 55 8 0 26
-11 38 -24z m-4932 -85 c21 -17 34 -31 30 -31 -12 0 -87 72 -87 84 0 6 5 3 10
-6 6 -9 27 -31 47 -47z m303 55 c0 -2 -8 -10 -17 -17 -16 -13 -17 -12 -4 4 13
16 21 21 21 13z m-123 -92 c-3 -3 -12 -4 -19 -1 -8 3 -5 6 6 6 11 1 17 -2 13
-5z m-64 -11 c-7 -2 -19 -2 -25 0 -7 3 -2 5 12 5 14 0 19 -2 13 -5z m4266 -39
c29 -37 28 -94 -2 -126 -18 -19 -37 -26 -83 -31 -32 -4 -144 -19 -248 -34
l-189 -27 -23 28 c-13 15 -24 39 -24 54 0 30 33 90 53 97 15 6 431 62 469 64
18 1 33 -8 47 -25z m-4850 -25 c24 -7 24 -7 4 -8 -30 -1 -73 16 -73 29 0 7 7
7 22 -1 12 -6 33 -15 47 -20z m4071 -124 c0 -158 10 -145 -129 -164 -123 -16
-138 -15 -144 12 -2 12 -2 74 2 137 l6 115 115 16 c63 9 123 17 133 18 15 1
17 -12 17 -134z m-975 59 c57 -23 95 -53 95 -75 0 -4 -22 -23 -49 -43 -27 -20
-52 -43 -55 -52 -13 -33 6 -65 50 -86 24 -11 46 -24 49 -28 7 -11 -71 -80 -90
-80 -8 0 -21 -13 -29 -29 -15 -28 -57 -48 -76 -36 -6 4 -10 31 -10 61 0 52 -1
54 -27 54 -21 0 -51 -25 -142 -121 l-115 -121 -19 24 c-10 12 -25 31 -33 41
-14 17 -12 22 23 60 21 23 73 74 115 112 90 81 103 109 65 137 -14 10 -35 26
-47 36 l-21 17 36 42 36 42 46 -35 c64 -49 76 -43 87 39 11 79 13 80 111 41z
m-1271 -234 c145 -12 309 -63 461 -144 131 -69 184 -106 268 -185 187 -176
298 -369 370 -641 28 -107 30 -127 30 -285 -1 -406 -110 -703 -383 -1041 -98
-122 -272 -253 -442 -333 -199 -95 -335 -125 -558 -125 -344 0 -619 105 -857
327 -79 74 -225 266 -275 363 -48 92 -102 254 -125 374 -26 143 -24 385 6 510
82 343 211 572 455 808 214 206 504 339 821 376 59 6 112 6 229 -4z m3497 -82
c23 -37 20 -95 -6 -114 -20 -15 -159 -36 -180 -28 -33 13 -31 106 3 137 16 15
89 33 140 36 15 1 29 -9 43 -31z m-342 -34 c28 -36 27 -86 -2 -120 -23 -26
-34 -29 -323 -70 -164 -24 -303 -44 -307 -44 -4 0 -19 11 -32 25 -30 29 -33
74 -8 116 20 33 4 30 308 74 132 20 245 37 250 39 6 3 29 5 52 5 34 1 46 -4
62 -25z m-4761 -41 l3 -33 29 21 c34 26 67 20 92 -15 18 -24 17 -25 -28 -69
-52 -49 -54 -79 -6 -100 33 -14 202 -148 202 -159 0 -10 -51 -88 -57 -88 -2 0
-25 17 -51 38 -116 94 -148 119 -161 126 -18 11 -31 -11 -31 -55 0 -44 -15
-59 -57 -59 l-33 0 0 60 c0 78 -17 87 -69 36 -20 -20 -40 -36 -45 -36 -16 0
-66 42 -66 55 0 8 20 28 44 45 25 16 47 39 51 50 7 24 -16 62 -50 80 -14 7
-25 20 -25 28 0 20 32 72 45 72 5 0 30 -14 54 -30 24 -17 50 -30 57 -30 7 0
15 20 19 51 l7 50 37 -3 c33 -3 36 -6 39 -35z m3844 -68 c-1 -33 -7 -64 -12
-69 -11 -11 -228 -42 -236 -33 -3 3 -9 35 -11 70 l-5 64 118 15 c66 8 126 15
134 14 12 -1 14 -14 12 -61z m1360 -208 l28 -23 -75 -87 -75 -87 53 -26 c82
-41 82 -42 45 -81 -17 -18 -36 -33 -42 -33 -6 0 -29 19 -53 42 l-42 41 -38
-39 c-21 -22 -54 -59 -73 -84 l-36 -43 -32 29 -32 29 65 75 c36 41 65 78 65
81 0 4 -34 28 -75 54 -41 25 -75 50 -75 54 0 4 13 20 29 35 l29 28 48 -35 c27
-19 63 -42 81 -51 l32 -16 43 57 c83 114 86 116 130 80z m-509 -198 c46 -40
46 -41 32 -69 -15 -29 -70 -80 -87 -80 -19 0 -68 59 -68 83 0 24 53 107 69
107 4 0 29 -18 54 -41z m-848 -141 c-4 -79 -10 -146 -14 -149 -3 -4 -46 -12
-96 -18 -49 -6 -105 -14 -122 -17 l-33 -6 0 110 c0 60 -3 123 -6 140 -9 45 4
49 270 81 4 1 5 -63 1 -141z m459 110 c17 -24 21 -85 7 -106 -4 -8 -51 -21
-104 -30 -92 -16 -97 -16 -116 2 -28 25 -27 74 2 108 16 21 35 30 77 37 95 15
117 13 134 -11z m964 -224 l22 -32 -70 -80 c-75 -86 -75 -83 -7 -117 59 -31
62 -39 26 -79 l-31 -36 -37 29 c-20 15 -50 36 -68 44 l-31 16 -28 -37 c-57
-78 -75 -92 -98 -80 -12 6 -24 16 -28 21 -10 16 16 60 61 100 23 20 41 41 41
46 0 5 -25 28 -56 51 l-56 42 28 29 c15 16 32 29 37 29 4 0 19 -13 32 -29 14
-15 38 -34 55 -41 30 -12 31 -12 93 55 34 38 68 77 76 87 7 11 14 18 15 16 1
-2 12 -17 24 -34z m-543 -160 c21 -9 45 -56 45 -91 0 -15 -9 -39 -19 -52 -16
-21 -38 -26 -247 -57 -126 -18 -264 -38 -306 -45 -76 -12 -78 -12 -103 11 -33
31 -34 88 -2 125 21 24 38 28 287 66 145 22 266 42 269 44 6 7 57 6 76 -1z
m-875 -209 c0 -155 17 -135 -130 -155 -47 -6 -95 -13 -107 -16 -12 -2 -24 -1
-27 4 -7 11 -11 270 -4 277 7 7 250 33 261 28 4 -2 7 -65 7 -138z m1434 -96
c14 -11 26 -25 26 -31 0 -6 -26 -43 -57 -81 -94 -115 -91 -103 -34 -128 55
-23 87 -52 76 -68 -3 -6 -19 -18 -34 -25 -27 -14 -30 -13 -77 25 l-48 41 -46
-49 c-25 -27 -55 -61 -68 -77 l-23 -27 -32 20 c-17 11 -33 24 -35 29 -1 5 29
45 68 90 39 45 69 85 66 90 -2 4 -41 25 -85 47 -45 21 -81 43 -81 49 0 14 51
66 65 66 7 0 20 -9 30 -20 19 -22 116 -80 131 -80 5 0 33 34 62 75 30 41 57
75 62 75 4 0 19 -9 34 -21z m192 -31 c8 -16 18 -60 21 -97 5 -61 3 -71 -16
-90 -31 -31 -55 -26 -74 14 -22 47 -21 120 3 172 22 49 41 49 66 1z m-676
-157 l38 -39 -35 -52 c-32 -48 -37 -52 -66 -46 -42 8 -57 30 -57 82 0 36 5 46
33 68 17 14 36 26 41 26 4 0 25 -18 46 -39z m-297 -19 c8 -9 21 -30 27 -46 13
-35 -2 -81 -32 -97 -10 -6 -85 -19 -166 -29 -81 -11 -166 -22 -189 -26 -39 -6
-43 -5 -62 27 -23 37 -20 67 11 111 20 29 32 33 198 58 154 24 193 24 213 2z
m-656 -159 l-2 -138 -80 -12 c-44 -6 -104 -15 -132 -19 l-53 -7 0 141 0 141
43 5 c23 3 69 10 102 15 33 5 75 9 92 10 l33 1 -3 -137z m1515 -100 l27 -26
-61 -65 -61 -66 39 -30 c88 -71 81 -61 60 -85 -27 -30 -52 -26 -99 14 -23 20
-48 34 -56 33 -8 -2 -31 -32 -52 -68 -44 -78 -59 -89 -93 -70 -14 7 -26 18
-26 23 0 5 27 38 60 74 33 35 60 67 60 71 0 4 -27 27 -60 50 -33 24 -60 47
-60 51 0 4 15 22 34 40 l34 33 17 -25 c9 -14 33 -36 55 -51 l38 -25 52 74 c28
41 54 75 58 75 3 0 18 -12 34 -27z m-431 -136 c43 -33 49 -84 16 -123 -20 -23
-36 -28 -127 -41 l-105 -14 -18 23 c-23 27 -19 101 7 126 15 16 121 39 181 41
17 0 37 -5 46 -12z m-380 -66 c33 -33 37 -67 14 -111 -19 -37 -40 -42 -268
-76 -165 -24 -180 -24 -203 -10 -29 19 -33 70 -9 116 20 39 34 45 150 64 55 9
136 23 180 30 44 8 86 14 93 15 8 1 27 -12 43 -28z m-705 -107 c-3 -26 -6 -57
-6 -69 0 -21 -6 -23 -82 -30 -46 -3 -102 -10 -125 -14 -40 -8 -41 -7 -47 22
-10 50 -7 107 7 112 20 8 148 22 206 24 l54 1 -7 -46z m-1256 -123 c19 -14 58
-47 87 -73 62 -57 88 -62 97 -17 3 17 6 46 6 63 0 37 15 56 45 56 29 0 52 -27
60 -73 6 -30 10 -35 21 -26 10 8 14 8 14 0 0 -6 5 -10 11 -8 24 5 18 -20 -7
-33 -29 -16 -47 -53 -39 -79 2 -9 25 -28 50 -43 42 -26 45 -30 34 -50 -19 -37
-41 -58 -61 -58 -12 0 -18 -7 -18 -23 0 -33 -19 -47 -62 -47 -35 0 -38 2 -38
29 0 69 -29 79 -83 31 -39 -34 -62 -37 -89 -13 -25 22 -24 26 22 84 22 28 40
57 40 64 0 7 -28 34 -62 59 -35 25 -81 61 -102 80 l-40 34 27 41 c29 44 29 44
87 2z m-2294 -124 l32 -43 -47 -50 c-25 -27 -63 -71 -84 -97 -21 -26 -63 -65
-93 -87 -37 -28 -54 -47 -54 -63 0 -33 10 -43 73 -70 31 -14 57 -30 57 -35 0
-17 -40 -61 -61 -67 -14 -5 -28 0 -42 13 -12 11 -32 23 -44 27 -19 5 -25 1
-33 -20 -5 -14 -10 -46 -10 -71 l0 -44 -45 0 -45 0 0 64 c0 90 -15 100 -73 46
l-45 -41 -31 27 c-17 14 -31 31 -31 37 0 7 24 28 53 47 73 50 73 71 3 105 -31
15 -56 33 -56 40 0 18 49 75 64 75 7 0 23 -12 37 -26 13 -14 37 -33 53 -41 40
-21 48 -5 41 84 -7 72 -6 73 20 83 38 14 55 -3 55 -54 0 -58 12 -74 42 -57 23
13 40 32 158 179 36 45 67 81 70 81 3 0 19 -19 36 -42z m4499 -176 c-3 -6 -16
-11 -28 -11 -21 0 -21 1 3 13 27 15 36 14 25 -2z m334 -503 c-14 -61 -4 -94
33 -107 54 -19 75 -14 109 29 31 39 32 39 55 21 12 -10 35 -32 50 -50 l27 -33
-46 -43 c-26 -24 -47 -46 -47 -51 0 -4 12 -21 27 -36 22 -23 35 -28 75 -28 54
0 71 -19 66 -73 -3 -29 -8 -34 -58 -50 -102 -34 -116 -70 -49 -128 l41 -35
-47 -48 -48 -47 -38 37 c-41 40 -57 41 -116 4 -35 -21 -38 -32 -24 -91 5 -21
5 -42 1 -48 -3 -6 -36 -14 -72 -18 l-66 -6 -7 54 c-9 64 -18 85 -46 100 -34
18 -66 2 -95 -46 -14 -25 -28 -45 -31 -45 -11 0 -93 72 -93 81 0 5 16 23 35
40 40 35 44 65 16 100 -18 22 -21 23 -53 10 -18 -7 -45 -15 -60 -18 -25 -5
-27 -3 -33 50 -11 83 -5 92 67 105 66 12 78 22 78 64 0 20 -11 36 -40 59 l-39
32 42 53 c23 30 44 54 47 54 4 0 19 -13 35 -30 34 -36 61 -38 106 -7 34 23 34
24 34 98 l0 74 40 6 c22 3 61 7 86 8 l47 1 -9 -42z m-1186 -214 c57 -19 136
-95 168 -161 20 -40 24 -64 24 -138 0 -81 -3 -97 -32 -158 -43 -89 -119 -169
-202 -210 -57 -28 -76 -32 -141 -32 -58 0 -85 6 -117 23 -110 58 -163 140
-170 267 -8 126 15 208 84 293 90 111 256 161 386 116z m-597 -301 c-16 -96
-17 -159 -2 -208 8 -27 14 -50 12 -52 -2 -2 -124 -21 -272 -43 -148 -21 -323
-48 -389 -59 -66 -11 -153 -24 -193 -29 -71 -8 -73 -8 -67 12 3 12 9 57 12
102 4 62 2 93 -12 133 -9 29 -15 54 -14 55 14 12 807 122 893 125 l39 1 -7
-37z m-2944 -74 c152 -51 256 -162 287 -307 14 -66 14 -163 0 -222 -25 -111
-124 -252 -223 -319 -198 -134 -450 -84 -587 116 -59 85 -83 202 -68 330 13
105 55 189 139 274 128 130 301 179 452 128z m1913 -59 c21 -41 20 -119 -2
-136 -17 -13 -17 -13 0 -14 23 0 22 -30 -4 -90 -23 -54 -11 -50 -189 -70 -122
-14 -210 -27 -340 -51 -58 -10 -193 -30 -300 -43 -107 -14 -269 -36 -360 -50
-91 -13 -192 -27 -225 -30 l-60 -5 0 144 c0 80 0 145 1 145 5 0 614 96 722
114 81 14 199 32 262 41 63 9 180 27 260 40 173 29 191 32 207 34 7 0 19 -12
28 -29z"/>
<path d="M3840 6951 c-404 -89 -762 -413 -884 -801 -47 -146 -58 -216 -58
-365 0 -220 47 -377 169 -564 213 -327 608 -527 956 -483 275 35 471 134 684
347 104 105 211 253 257 357 103 233 134 546 76 763 -23 85 -90 237 -133 300
-122 179 -363 360 -571 428 -82 27 -106 30 -251 33 -129 3 -176 0 -245 -15z
m-40 -544 c71 -44 190 -107 475 -252 401 -205 382 -194 396 -226 10 -26 9 -34
-8 -57 -21 -29 -196 -158 -413 -303 -74 -50 -159 -109 -187 -130 -29 -21 -79
-58 -110 -81 -32 -23 -92 -70 -133 -103 -133 -108 -151 -114 -195 -70 l-25 24
0 599 0 599 23 20 c42 40 86 35 177 -20z"/>
<path d="M7560 3918 c-44 -30 -70 -82 -70 -139 0 -54 22 -88 74 -113 48 -23
83 -20 141 12 37 20 55 39 74 75 l24 48 -19 47 c-26 63 -70 92 -139 92 -38 0
-61 -6 -85 -22z"/>
<path d="M6342 3750 c-41 -25 -72 -76 -72 -119 0 -46 64 -111 109 -111 41 0
107 59 122 109 16 53 -8 107 -55 126 -47 20 -65 19 -104 -5z"/>
<path d="M2924 3287 c-80 -71 -87 -73 -141 -36 -30 21 -62 34 -92 37 -40 3
-49 0 -73 -25 -41 -43 -46 -86 -15 -117 29 -29 62 -33 113 -14 31 11 35 10 55
-16 12 -15 56 -55 97 -87 l75 -59 31 18 c17 10 35 31 41 46 9 26 6 32 -33 65
-23 20 -42 44 -42 54 0 10 21 27 57 45 75 37 91 72 50 108 -40 35 -68 30 -123
-19z"/>
</g>
</svg>
